<svg width="32" height="32" viewBox="0 0 32 32" fill="none" xmlns="http://www.w3.org/2000/svg">
  <!-- Background Circle -->
  <circle cx="16" cy="16" r="15" fill="url(#gradient1)"/>
  
  <!-- Mint Leaf Shape -->
  <path d="M16 8 C13 8, 10 10, 10 13 C10 16, 13 18, 16 18 C19 18, 22 16, 22 13 C22 10, 19 8, 16 8Z" fill="url(#gradient2)"/>
  
  <!-- Data Points -->
  <circle cx="12" cy="13" r="1.5" fill="white" opacity="0.9"/>
  <circle cx="16" cy="11" r="1.5" fill="white" opacity="0.9"/>
  <circle cx="20" cy="13" r="1.5" fill="white" opacity="0.9"/>
  
  <!-- Chart Lines -->
  <path d="M9 20 L12 17 L16 19 L20 15 L23 18" stroke="white" stroke-width="2" stroke-linecap="round" fill="none" opacity="0.8"/>
  
  <!-- Data Nodes -->
  <circle cx="9" cy="20" r="1.2" fill="white"/>
  <circle cx="12" cy="17" r="1.2" fill="white"/>
  <circle cx="16" cy="19" r="1.2" fill="white"/>
  <circle cx="20" cy="15" r="1.2" fill="white"/>
  <circle cx="23" cy="18" r="1.2" fill="white"/>
  
  <!-- Gradients -->
  <defs>
    <linearGradient id="gradient1" x1="0%" y1="0%" x2="100%" y2="100%">
      <stop offset="0%" style="stop-color:#055864;stop-opacity:1" />
      <stop offset="100%" style="stop-color:#033d47;stop-opacity:1" />
    </linearGradient>
    <linearGradient id="gradient2" x1="0%" y1="0%" x2="100%" y2="100%">
      <stop offset="0%" style="stop-color:#10b981;stop-opacity:0.9" />
      <stop offset="100%" style="stop-color:#059669;stop-opacity:0.9" />
    </linearGradient>
  </defs>
</svg>