<svg width="200" height="200" viewBox="0 0 200 200" fill="none" xmlns="http://www.w3.org/2000/svg">
  <!-- Background Circle -->
  <circle cx="100" cy="100" r="95" fill="url(#gradient1)"/>
  
  <!-- Mint Leaf Shape -->
  <path d="M100 50 C80 50, 65 65, 65 85 C65 105, 80 120, 100 120 C120 120, 135 105, 135 85 C135 65, 120 50, 100 50Z" fill="url(#gradient2)"/>
  
  <!-- Data Points -->
  <circle cx="75" cy="85" r="6" fill="white" opacity="0.9"/>
  <circle cx="100" cy="75" r="6" fill="white" opacity="0.9"/>
  <circle cx="125" cy="85" r="6" fill="white" opacity="0.9"/>
  
  <!-- Chart Lines -->
  <path d="M60 130 L80 115 L100 125 L120 105 L140 120" stroke="white" stroke-width="4" stroke-linecap="round" fill="none" opacity="0.8"/>
  
  <!-- Data Nodes -->
  <circle cx="60" cy="130" r="5" fill="white"/>
  <circle cx="80" cy="115" r="5" fill="white"/>
  <circle cx="100" cy="125" r="5" fill="white"/>
  <circle cx="120" cy="105" r="5" fill="white"/>
  <circle cx="140" cy="120" r="5" fill="white"/>
  
  <!-- Text -->
  <text x="100" y="165" font-family="Arial, sans-serif" font-size="28" font-weight="bold" fill="white" text-anchor="middle">DataMint</text>
  
  <!-- Gradients -->
  <defs>
    <linearGradient id="gradient1" x1="0%" y1="0%" x2="100%" y2="100%">
      <stop offset="0%" style="stop-color:#667eea;stop-opacity:1" />
      <stop offset="100%" style="stop-color:#764ba2;stop-opacity:1" />
    </linearGradient>
    <linearGradient id="gradient2" x1="0%" y1="0%" x2="100%" y2="100%">
      <stop offset="0%" style="stop-color:#10b981;stop-opacity:0.9" />
      <stop offset="100%" style="stop-color:#059669;stop-opacity:0.9" />
    </linearGradient>
  </defs>
</svg>